<mxfile host="Electron" modified="2023-12-02T20:40:53.878Z" agent="Mozilla/5.0 (Macintosh; Intel Mac OS X 10_15_7) AppleWebKit/537.36 (KHTML, like Gecko) draw.io/22.1.2 Chrome/114.0.5735.289 Electron/25.9.4 Safari/537.36" etag="p3F1tJ9jKIvNE-EW4AKy" version="22.1.2" type="device">
  <diagram id="R2lEEEUBdFMjLlhIrx00" name="Page-1">
    <mxGraphModel dx="948" dy="1582" grid="1" gridSize="10" guides="1" tooltips="1" connect="1" arrows="1" fold="1" page="1" pageScale="1" pageWidth="850" pageHeight="1100" math="0" shadow="0" extFonts="Permanent Marker^https://fonts.googleapis.com/css?family=Permanent+Marker">
      <root>
        <mxCell id="0" />
        <mxCell id="1" parent="0" />
        <mxCell id="nw2rKHM_UsUCxflgXDxV-8" style="edgeStyle=orthogonalEdgeStyle;rounded=0;orthogonalLoop=1;jettySize=auto;html=1;fontFamily=Courier New;" edge="1" parent="1" source="nw2rKHM_UsUCxflgXDxV-1" target="nw2rKHM_UsUCxflgXDxV-3">
          <mxGeometry relative="1" as="geometry" />
        </mxCell>
        <mxCell id="nw2rKHM_UsUCxflgXDxV-1" value="" style="ellipse;whiteSpace=wrap;html=1;aspect=fixed;fillColor=#000000;fontFamily=Courier New;" vertex="1" parent="1">
          <mxGeometry x="314" y="280" width="20" height="20" as="geometry" />
        </mxCell>
        <mxCell id="nw2rKHM_UsUCxflgXDxV-10" style="edgeStyle=orthogonalEdgeStyle;rounded=0;orthogonalLoop=1;jettySize=auto;html=1;fontFamily=Courier New;" edge="1" parent="1" source="nw2rKHM_UsUCxflgXDxV-3" target="nw2rKHM_UsUCxflgXDxV-4">
          <mxGeometry relative="1" as="geometry" />
        </mxCell>
        <mxCell id="nw2rKHM_UsUCxflgXDxV-13" value="accessLogin()" style="edgeLabel;html=1;align=center;verticalAlign=middle;resizable=0;points=[];fontFamily=Courier New;" vertex="1" connectable="0" parent="nw2rKHM_UsUCxflgXDxV-10">
          <mxGeometry x="-0.0253" y="1" relative="1" as="geometry">
            <mxPoint as="offset" />
          </mxGeometry>
        </mxCell>
        <mxCell id="nw2rKHM_UsUCxflgXDxV-3" value="Login Button" style="rounded=1;whiteSpace=wrap;html=1;fontFamily=Courier New;" vertex="1" parent="1">
          <mxGeometry x="262" y="350" width="125" height="40" as="geometry" />
        </mxCell>
        <mxCell id="nw2rKHM_UsUCxflgXDxV-14" style="edgeStyle=orthogonalEdgeStyle;rounded=0;orthogonalLoop=1;jettySize=auto;html=1;entryX=0.5;entryY=0;entryDx=0;entryDy=0;fontFamily=Courier New;" edge="1" parent="1" source="nw2rKHM_UsUCxflgXDxV-4" target="nw2rKHM_UsUCxflgXDxV-5">
          <mxGeometry relative="1" as="geometry" />
        </mxCell>
        <mxCell id="nw2rKHM_UsUCxflgXDxV-15" value="loginToken()" style="edgeLabel;html=1;align=center;verticalAlign=middle;resizable=0;points=[];fontFamily=Courier New;" vertex="1" connectable="0" parent="nw2rKHM_UsUCxflgXDxV-14">
          <mxGeometry x="-0.1763" y="-1" relative="1" as="geometry">
            <mxPoint as="offset" />
          </mxGeometry>
        </mxCell>
        <mxCell id="nw2rKHM_UsUCxflgXDxV-4" value="Entering Credentials" style="rounded=1;whiteSpace=wrap;html=1;fontFamily=Courier New;" vertex="1" parent="1">
          <mxGeometry x="262" y="460" width="125" height="40" as="geometry" />
        </mxCell>
        <mxCell id="nw2rKHM_UsUCxflgXDxV-16" style="edgeStyle=orthogonalEdgeStyle;rounded=0;orthogonalLoop=1;jettySize=auto;html=1;fontFamily=Courier New;" edge="1" parent="1" source="nw2rKHM_UsUCxflgXDxV-5" target="nw2rKHM_UsUCxflgXDxV-11">
          <mxGeometry relative="1" as="geometry" />
        </mxCell>
        <mxCell id="nw2rKHM_UsUCxflgXDxV-20" value="validLogin()" style="edgeLabel;html=1;align=center;verticalAlign=middle;resizable=0;points=[];fontFamily=Courier New;" vertex="1" connectable="0" parent="nw2rKHM_UsUCxflgXDxV-16">
          <mxGeometry x="-0.1305" y="-2" relative="1" as="geometry">
            <mxPoint as="offset" />
          </mxGeometry>
        </mxCell>
        <mxCell id="nw2rKHM_UsUCxflgXDxV-17" style="edgeStyle=orthogonalEdgeStyle;rounded=0;orthogonalLoop=1;jettySize=auto;html=1;entryX=0.5;entryY=0;entryDx=0;entryDy=0;fontFamily=Courier New;" edge="1" parent="1" source="nw2rKHM_UsUCxflgXDxV-5" target="nw2rKHM_UsUCxflgXDxV-7">
          <mxGeometry relative="1" as="geometry" />
        </mxCell>
        <mxCell id="nw2rKHM_UsUCxflgXDxV-21" value="invalidLogin()" style="edgeLabel;html=1;align=center;verticalAlign=middle;resizable=0;points=[];fontFamily=Courier New;" vertex="1" connectable="0" parent="nw2rKHM_UsUCxflgXDxV-17">
          <mxGeometry x="0.4949" relative="1" as="geometry">
            <mxPoint as="offset" />
          </mxGeometry>
        </mxCell>
        <mxCell id="nw2rKHM_UsUCxflgXDxV-5" value="Credentials Submitted" style="rounded=1;whiteSpace=wrap;html=1;fontFamily=Courier New;" vertex="1" parent="1">
          <mxGeometry x="262" y="580" width="125" height="40" as="geometry" />
        </mxCell>
        <mxCell id="nw2rKHM_UsUCxflgXDxV-19" style="edgeStyle=orthogonalEdgeStyle;rounded=0;orthogonalLoop=1;jettySize=auto;html=1;exitX=1;exitY=0.5;exitDx=0;exitDy=0;entryX=1;entryY=0.5;entryDx=0;entryDy=0;fontFamily=Courier New;" edge="1" parent="1" source="nw2rKHM_UsUCxflgXDxV-7" target="nw2rKHM_UsUCxflgXDxV-4">
          <mxGeometry relative="1" as="geometry" />
        </mxCell>
        <mxCell id="nw2rKHM_UsUCxflgXDxV-7" value="Login Failed" style="rounded=1;whiteSpace=wrap;html=1;fontFamily=Courier New;" vertex="1" parent="1">
          <mxGeometry x="443" y="690" width="125" height="40" as="geometry" />
        </mxCell>
        <mxCell id="nw2rKHM_UsUCxflgXDxV-9" value="" style="group;fontFamily=Courier New;" vertex="1" connectable="0" parent="1">
          <mxGeometry x="309.5" y="790" width="30" height="30" as="geometry" />
        </mxCell>
        <mxCell id="nw2rKHM_UsUCxflgXDxV-2" value="" style="ellipse;whiteSpace=wrap;html=1;aspect=fixed;fillColor=none;fontFamily=Courier New;" vertex="1" parent="nw2rKHM_UsUCxflgXDxV-9">
          <mxGeometry width="30" height="30" as="geometry" />
        </mxCell>
        <mxCell id="nw2rKHM_UsUCxflgXDxV-6" value="" style="ellipse;whiteSpace=wrap;html=1;aspect=fixed;fillColor=#000000;fontFamily=Courier New;" vertex="1" parent="nw2rKHM_UsUCxflgXDxV-9">
          <mxGeometry x="5" y="5" width="20" height="20" as="geometry" />
        </mxCell>
        <mxCell id="nw2rKHM_UsUCxflgXDxV-12" style="edgeStyle=orthogonalEdgeStyle;rounded=0;orthogonalLoop=1;jettySize=auto;html=1;entryX=0.5;entryY=0;entryDx=0;entryDy=0;fontFamily=Courier New;" edge="1" parent="1" source="nw2rKHM_UsUCxflgXDxV-11" target="nw2rKHM_UsUCxflgXDxV-2">
          <mxGeometry relative="1" as="geometry" />
        </mxCell>
        <mxCell id="nw2rKHM_UsUCxflgXDxV-11" value="Login Successful" style="rounded=1;whiteSpace=wrap;html=1;fontFamily=Courier New;" vertex="1" parent="1">
          <mxGeometry x="262" y="690" width="125" height="40" as="geometry" />
        </mxCell>
        <mxCell id="nw2rKHM_UsUCxflgXDxV-24" value="&lt;div style=&quot;text-align: left; font-size: 14px;&quot;&gt;&lt;span style=&quot;background-color: initial;&quot;&gt;&lt;font style=&quot;font-size: 14px;&quot; face=&quot;Courier New&quot;&gt;&lt;b style=&quot;&quot;&gt;ENSF 614 Final Project&lt;/b&gt;&lt;/font&gt;&lt;/span&gt;&lt;/div&gt;&lt;div style=&quot;text-align: left; font-size: 14px;&quot;&gt;&lt;span style=&quot;background-color: initial;&quot;&gt;&lt;font style=&quot;font-size: 14px;&quot; face=&quot;Courier New&quot;&gt;&lt;b&gt;State Transition Diagram - Login State&lt;/b&gt;&lt;/font&gt;&lt;/span&gt;&lt;/div&gt;&lt;div style=&quot;text-align: left; font-size: 14px;&quot;&gt;&lt;span style=&quot;background-color: initial;&quot;&gt;&lt;font style=&quot;font-size: 14px;&quot; face=&quot;Courier New&quot;&gt;Group 4&lt;/font&gt;&lt;/span&gt;&lt;/div&gt;" style="text;html=1;strokeColor=none;fillColor=none;align=center;verticalAlign=middle;whiteSpace=wrap;rounded=0;" vertex="1" parent="1">
          <mxGeometry x="9" y="20" width="341" height="30" as="geometry" />
        </mxCell>
      </root>
    </mxGraphModel>
  </diagram>
</mxfile>
